<svg width="132" height="209" viewBox="0 0 132 209" fill="none" xmlns="http://www.w3.org/2000/svg">
<circle r="4.5" transform="matrix(-1 0 0 1 122.5 4.5)" fill="#61FFD9"/>
<circle r="4.5" transform="matrix(-1 0 0 1 122.5 54.5)" fill="#61FFD9"/>
<circle r="4.5" transform="matrix(-1 0 0 1 122.5 104.5)" fill="#61FFD9"/>
<circle r="4.5" transform="matrix(-1 0 0 1 122.5 154.5)" fill="#61FFD9"/>
<circle r="4.5" transform="matrix(-1 0 0 1 122.5 204.5)" fill="#61FFD9"/>
<circle r="4.5" transform="matrix(-1 0 0 1 63.5 4.5)" fill="#61FFD9"/>
<circle r="4.5" transform="matrix(-1 0 0 1 63.5 54.5)" fill="#61FFD9"/>
<circle r="4.5" transform="matrix(-1 0 0 1 63.5 104.5)" fill="#61FFD9"/>
<circle r="4.5" transform="matrix(-1 0 0 1 63.5 154.5)" fill="#61FFD9"/>
<circle r="4.5" transform="matrix(-1 0 0 1 63.5 204.5)" fill="#61FFD9"/>
<circle r="4.5" transform="matrix(-1 0 0 1 4.5 4.5)" fill="#61FFD9"/>
<circle r="4.5" transform="matrix(-1 0 0 1 4.5 54.5)" fill="#61FFD9"/>
<circle r="4.5" transform="matrix(-1 0 0 1 4.5 104.5)" fill="#61FFD9"/>
<circle r="4.5" transform="matrix(-1 0 0 1 4.5 154.5)" fill="#61FFD9"/>
<circle r="4.5" transform="matrix(-1 0 0 1 4.5 204.5)" fill="#61FFD9"/>
</svg>
