<svg width="24" height="22" viewBox="0 0 24 22" fill="none" xmlns="http://www.w3.org/2000/svg">
<path d="M23.6294 1.38409C23.3363 1.02557 22.8972 0.828186 22.3929 0.828186C22.1188 0.828186 21.8284 0.885864 21.5299 0.999939L1.21439 8.755C0.136268 9.16644 -0.00893449 9.78387 0.000403879 10.1153C0.00974225 10.4467 0.189735 11.055 1.28947 11.4049C1.29606 11.4069 1.30265 11.4089 1.30924 11.4108L5.52323 12.6167L7.80216 19.1334C8.11289 20.0219 8.81034 20.5737 9.6226 20.5737C10.1347 20.5737 10.6385 20.3591 11.0794 19.9534L13.6859 17.5534L17.4665 20.5975C17.4668 20.5979 17.4674 20.5981 17.4678 20.5984L17.5036 20.6274C17.5069 20.6299 17.5104 20.6327 17.5137 20.6353C17.9339 20.9612 18.3926 21.1333 18.8407 21.1335H18.8409C19.7163 21.1335 20.4134 20.4855 20.6164 19.4828L23.9451 3.04651C24.0788 2.38678 23.9667 1.79645 23.6294 1.38409ZM6.93296 12.3876L15.063 8.23425L10.0007 13.6133C9.91776 13.7014 9.85899 13.8093 9.83006 13.9266L8.85392 17.8806L6.93296 12.3876ZM10.1267 18.9188C10.093 18.9498 10.0591 18.9774 10.0252 19.0029L10.9309 15.3349L12.5783 16.6615L10.1267 18.9188ZM22.5669 2.76727L19.2382 19.2037C19.2062 19.361 19.1038 19.7271 18.8407 19.7271C18.7107 19.7271 18.5473 19.6562 18.3802 19.5275L14.0962 16.0781C14.0957 16.0776 14.0949 16.077 14.0942 16.0767L11.5452 14.024L18.8659 6.24518C19.1003 5.99615 19.1216 5.61475 18.9163 5.34119C18.7109 5.06763 18.3386 4.98157 18.0341 5.13721L5.99345 11.2885L1.72214 10.0664L22.0315 2.31372C22.203 2.24817 22.3228 2.23444 22.3929 2.23444C22.4359 2.23444 22.5125 2.23956 22.5409 2.27454C22.5782 2.32013 22.6258 2.47559 22.5669 2.76727Z" fill="#61FFD9"/>
</svg>
